<svg width="2001" height="678" viewBox="0 0 2001 678" fill="none" xmlns="http://www.w3.org/2000/svg">
<path d="M0.96875 14.925V74.893H73.1908V605.927H0.96875V665.894H138.167V595.085C161.789 621.182 190.39 641.996 222.186 656.229C253.983 670.462 288.292 677.808 322.973 677.809C356.122 677.809 388.946 671.099 419.572 658.062C450.197 645.024 478.024 625.915 501.464 601.825C524.904 577.735 543.497 549.136 556.182 517.66C568.867 486.185 575.396 452.45 575.395 418.382C575.395 384.314 568.865 350.58 556.18 319.106C543.494 287.631 524.901 259.033 501.462 234.944C478.022 210.854 450.195 191.745 419.57 178.709C388.945 165.672 356.121 158.962 322.973 158.962C322.923 158.962 322.873 158.962 322.823 158.962C288.167 158.984 253.887 166.341 222.118 180.573C190.35 194.805 161.773 215.607 138.168 241.685V14.925H0.96875ZM322.533 221.452C322.535 221.452 322.537 221.452 322.539 221.452C322.683 221.452 322.827 221.452 322.972 221.452C347.278 221.451 371.347 226.545 393.803 236.441C416.26 246.338 436.664 260.843 453.851 279.13C471.039 297.417 484.672 319.126 493.974 343.019C503.276 366.912 508.063 392.52 508.063 418.382C508.063 444.243 503.276 469.852 493.974 493.744C484.673 517.637 471.039 539.347 453.852 557.634C436.664 575.92 416.26 590.426 393.804 600.322C371.348 610.219 347.279 615.312 322.973 615.312C275.639 615.311 230.104 596.015 195.731 561.392C161.357 526.768 140.757 479.449 138.167 429.162V407.608C140.752 357.401 161.289 310.148 195.569 275.535C229.849 240.923 275.274 221.573 322.533 221.452Z" fill="white"/>
<path d="M954.022 165.625C858.768 165.625 808.771 197.298 776.916 253.171V173.268H639.699V233.236H711.94V605.927H639.7V665.894H849.163V605.927H776.916V425.461C776.916 343.794 807.37 251.783 891.111 241.171V324.538H954.022V165.625Z" fill="white"/>
<path d="M1263.68 157.337C1123.97 157.335 1010.72 273.849 1010.72 417.577C1010.72 561.3 1123.97 677.81 1263.68 677.809C1368.81 677.806 1462.97 610.912 1500.22 509.777H1429.1C1396.77 574.773 1333.08 615.464 1263.68 615.467C1168.32 615.465 1088.25 539.506 1077.84 439.179H1515.76C1516.34 431.994 1516.63 424.786 1516.63 417.576C1516.63 273.852 1403.38 157.339 1263.68 157.337ZM1262.71 219.685H1263.68C1354.54 219.688 1432.24 288.835 1447.85 383.575H1079.5C1095.05 289.215 1172.21 220.185 1262.71 219.685Z" fill="white"/>
<path d="M1802.19 0.154968C1698.69 0.154968 1651.68 56.3 1651.68 156.6V173.268H1586.97V233.236H1651.68V605.927H1581.53V665.894H1796.43V605.927H1716.66V233.236H1802.19V173.268H1716.66V156.6C1716.66 88.417 1748.02 65.756 1802.19 65.756L1802.19 0.154968Z" fill="white"/>
<path d="M1935.99 545.514H2000.97V665.894H1935.99V545.514Z" fill="white"/>
</svg>
